M48
; DRILL file {KiCad 8.0.9} date 2025-03-03T18:22:02+1100
; FORMAT={-:-/ absolute / inch / decimal}
; #@! TF.CreationDate,2025-03-03T18:22:02+11:00
; #@! TF.GenerationSoftware,Kicad,Pcbnew,8.0.9
; #@! TF.FileFunction,Plated,1,2,PTH
FMAT,2
INCH
; #@! TA.AperFunction,Plated,PTH,ViaDrill
T1C0.0157
; #@! TA.AperFunction,Plated,PTH,ComponentDrill
T2C0.0315
; #@! TA.AperFunction,Plated,PTH,ComponentDrill
T3C0.0354
; #@! TA.AperFunction,Plated,PTH,ComponentDrill
T4C0.0394
%
G90
G05
T1
X0.3Y-1.7
X0.7Y-0.9
X0.7Y-1.2
X0.7Y-1.9
X0.803Y-1.5896
X1.0137Y-1.5043
X1.5Y-1.5
X1.5994Y-1.1127
X1.9833Y-2.5013
X2.4Y-0.8
X2.4Y-1.2
X2.4Y-1.6
X2.4Y-1.9
X2.4Y-2.3
X2.7786Y-1.7066
X3.3362Y-1.2643
T2
X0.4Y-2.9
X0.4Y-3.1
X0.45Y-1.75
X0.45Y-2.046
X0.5Y-3.0
X0.55Y-1.0
X0.85Y-1.75
X0.85Y-2.046
X0.9Y-2.9
X0.9Y-3.1
X0.9Y-3.4
X0.9Y-3.4984
X0.95Y-1.0
X1.3Y-2.9
X1.3Y-3.1
X1.75Y-3.4
X1.75Y-3.4984
X2.05Y-1.75
X2.05Y-2.05
X2.2Y-0.7
X2.2Y-1.0
X2.2Y-2.9
X2.2Y-3.1
X2.45Y-1.75
X2.45Y-2.05
X2.6Y-0.7
X2.6Y-1.0
X2.6Y-2.9
X2.6Y-3.1
X3.0Y-2.9
X3.0Y-3.1
X3.1Y-3.0
X3.2Y-2.2
X3.2Y-2.6
T3
X0.0191Y-2.4963
X0.0313Y-2.397
X0.0562Y-2.1935
X0.0684Y-2.0943
X0.0922Y-1.9007
X0.1044Y-1.8015
X0.12Y-2.605
X0.1287Y-1.603
X0.1409Y-1.5037
X0.1609Y-1.3213
X0.1731Y-1.222
X0.198Y-1.0185
X0.2102Y-0.9193
X0.22Y-2.605
X0.234Y-0.7257
X0.2462Y-0.6265
X0.26Y-1.4
X0.2705Y-0.428
X0.2827Y-0.3287
X0.36Y-1.4
X0.4Y-0.205
X0.42Y-2.605
X0.5Y-0.205
X0.52Y-2.605
X0.56Y-1.4
X0.66Y-1.4
X0.7Y-0.205
X0.715Y-2.605
X0.8Y-0.205
X0.815Y-2.605
X0.855Y-1.4
X0.955Y-1.4
X0.995Y-0.205
X1.02Y-2.605
X1.095Y-0.205
X1.12Y-2.605
X1.16Y-1.4
X1.2191Y-2.4963
X1.2313Y-2.397
X1.2562Y-2.1935
X1.26Y-1.4
X1.2684Y-2.0943
X1.2922Y-1.9007
X1.3Y-0.205
X1.3044Y-1.8015
X1.3287Y-1.603
X1.3409Y-1.5037
X1.3591Y-1.3213
X1.3713Y-1.222
X1.3962Y-1.0185
X1.4Y-0.205
X1.4084Y-0.9193
X1.4322Y-0.7257
X1.4444Y-0.6265
X1.4687Y-0.428
X1.4809Y-0.3287
X1.5891Y-2.507
X1.6013Y-2.4077
X1.6262Y-2.2043
X1.6384Y-2.105
X1.6622Y-1.9115
X1.6744Y-1.8122
X1.68Y-2.6
X1.6987Y-1.6137
X1.7109Y-1.5145
X1.7191Y-1.3313
X1.7313Y-1.232
X1.7562Y-1.0285
X1.7684Y-0.9293
X1.78Y-2.6
X1.7922Y-0.7357
X1.8044Y-0.6365
X1.825Y-1.4
X1.8287Y-0.438
X1.8409Y-0.3387
X1.925Y-1.4
X1.96Y-0.2
X1.98Y-2.6
X2.06Y-0.2
X2.08Y-2.6
X2.125Y-1.4
X2.225Y-1.4
X2.26Y-0.2
X2.275Y-2.6
X2.36Y-0.2
X2.375Y-2.6
X2.42Y-1.4
X2.52Y-1.4
X2.555Y-0.2
X2.58Y-2.6
X2.655Y-0.2
X2.68Y-2.6
X2.725Y-1.4
X2.7791Y-2.5013
X2.7913Y-2.402
X2.8162Y-2.1985
X2.825Y-1.4
X2.8284Y-2.0993
X2.8522Y-1.9057
X2.86Y-0.2
X2.8644Y-1.8065
X2.8887Y-1.608
X2.9009Y-1.5087
X2.9191Y-1.3013
X2.9313Y-1.202
X2.9562Y-0.9985
X2.96Y-0.2
X2.9684Y-0.8993
X2.9922Y-0.7057
X3.0044Y-0.6065
X3.0287Y-0.408
X3.0409Y-0.3087
X3.2391Y-1.8963
X3.2513Y-1.797
X3.264Y-1.6928
X3.2762Y-1.5935
X3.3256Y-1.1916
X3.3378Y-1.0923
X3.35Y-0.9931
X3.3622Y-0.8938
T4
X-0.1Y-1.2
X-0.1Y-1.3
X-0.1Y-1.4
X-0.1Y-1.5
X-0.1Y-1.6
X-0.1Y-1.7
X-0.1Y-1.8
X-0.1Y-1.9
X-0.1Y-2.0
X-0.1Y-2.1
X1.65Y-2.9
X1.75Y-2.9
X1.85Y-2.9
X3.5Y-1.2
X3.5Y-1.3
X3.5Y-1.4
X3.5Y-1.5
X3.5Y-1.6
X3.5Y-1.7
X3.5Y-1.8
X3.5Y-1.9
X3.5Y-2.0
X3.5Y-2.1
M30
