%TF.GenerationSoftware,KiCad,Pcbnew,8.0.9*%
%TF.CreationDate,2025-03-03T18:21:58+11:00*%
%TF.ProjectId,7segment,37736567-6d65-46e7-942e-6b696361645f,rev?*%
%TF.SameCoordinates,PX292dfe0PY1d11680*%
%TF.FileFunction,Legend,Top*%
%TF.FilePolarity,Positive*%
%FSLAX46Y46*%
G04 Gerber Fmt 4.6, Leading zero omitted, Abs format (unit mm)*
G04 Created by KiCad (PCBNEW 8.0.9) date 2025-03-03 18:21:58*
%MOMM*%
%LPD*%
G01*
G04 APERTURE LIST*
%ADD10C,0.150000*%
%ADD11C,0.120000*%
G04 APERTURE END LIST*
D10*
X84123444Y-36820663D02*
X83130898Y-36698793D01*
X83130898Y-36698793D02*
X83159915Y-36462473D01*
X83159915Y-36462473D02*
X83224589Y-36326484D01*
X83224589Y-36326484D02*
X83330723Y-36243562D01*
X83330723Y-36243562D02*
X83431055Y-36207905D01*
X83431055Y-36207905D02*
X83625915Y-36183854D01*
X83625915Y-36183854D02*
X83767707Y-36201264D01*
X83767707Y-36201264D02*
X83950960Y-36271741D01*
X83950960Y-36271741D02*
X84039685Y-36330612D01*
X84039685Y-36330612D02*
X84122607Y-36436747D01*
X84122607Y-36436747D02*
X84152461Y-36584342D01*
X84152461Y-36584342D02*
X84123444Y-36820663D01*
X83341492Y-35765118D02*
X83300031Y-35712050D01*
X83300031Y-35712050D02*
X83264374Y-35611719D01*
X83264374Y-35611719D02*
X83293390Y-35375398D01*
X83293390Y-35375398D02*
X83352261Y-35286674D01*
X83352261Y-35286674D02*
X83405329Y-35245213D01*
X83405329Y-35245213D02*
X83505660Y-35209555D01*
X83505660Y-35209555D02*
X83600188Y-35221162D01*
X83600188Y-35221162D02*
X83736177Y-35285836D01*
X83736177Y-35285836D02*
X84233707Y-35922645D01*
X84233707Y-35922645D02*
X84309150Y-35308211D01*
X83811620Y-34671402D02*
X83752750Y-34760127D01*
X83752750Y-34760127D02*
X83699682Y-34801588D01*
X83699682Y-34801588D02*
X83599351Y-34837246D01*
X83599351Y-34837246D02*
X83552087Y-34831442D01*
X83552087Y-34831442D02*
X83463362Y-34772572D01*
X83463362Y-34772572D02*
X83421901Y-34719504D01*
X83421901Y-34719504D02*
X83386243Y-34619173D01*
X83386243Y-34619173D02*
X83409457Y-34430116D01*
X83409457Y-34430116D02*
X83468327Y-34341391D01*
X83468327Y-34341391D02*
X83521395Y-34299931D01*
X83521395Y-34299931D02*
X83621726Y-34264273D01*
X83621726Y-34264273D02*
X83668990Y-34270076D01*
X83668990Y-34270076D02*
X83757715Y-34328947D01*
X83757715Y-34328947D02*
X83799176Y-34382015D01*
X83799176Y-34382015D02*
X83834833Y-34482346D01*
X83834833Y-34482346D02*
X83811620Y-34671402D01*
X83811620Y-34671402D02*
X83847278Y-34771734D01*
X83847278Y-34771734D02*
X83888739Y-34824801D01*
X83888739Y-34824801D02*
X83977463Y-34883672D01*
X83977463Y-34883672D02*
X84166520Y-34906885D01*
X84166520Y-34906885D02*
X84266851Y-34871228D01*
X84266851Y-34871228D02*
X84319919Y-34829767D01*
X84319919Y-34829767D02*
X84378789Y-34741042D01*
X84378789Y-34741042D02*
X84402003Y-34551986D01*
X84402003Y-34551986D02*
X84366345Y-34451654D01*
X84366345Y-34451654D02*
X84324884Y-34398587D01*
X84324884Y-34398587D02*
X84236159Y-34339716D01*
X84236159Y-34339716D02*
X84047103Y-34316503D01*
X84047103Y-34316503D02*
X83946772Y-34352160D01*
X83946772Y-34352160D02*
X83893704Y-34393621D01*
X83893704Y-34393621D02*
X83834833Y-34482346D01*
X48563444Y-22850663D02*
X47570898Y-22728793D01*
X47570898Y-22728793D02*
X47599915Y-22492473D01*
X47599915Y-22492473D02*
X47664589Y-22356484D01*
X47664589Y-22356484D02*
X47770723Y-22273562D01*
X47770723Y-22273562D02*
X47871055Y-22237905D01*
X47871055Y-22237905D02*
X48065915Y-22213854D01*
X48065915Y-22213854D02*
X48207707Y-22231264D01*
X48207707Y-22231264D02*
X48390960Y-22301741D01*
X48390960Y-22301741D02*
X48479685Y-22360612D01*
X48479685Y-22360612D02*
X48562607Y-22466747D01*
X48562607Y-22466747D02*
X48592461Y-22614342D01*
X48592461Y-22614342D02*
X48563444Y-22850663D01*
X47781492Y-21795118D02*
X47740031Y-21742050D01*
X47740031Y-21742050D02*
X47704374Y-21641719D01*
X47704374Y-21641719D02*
X47733390Y-21405398D01*
X47733390Y-21405398D02*
X47792261Y-21316674D01*
X47792261Y-21316674D02*
X47845329Y-21275213D01*
X47845329Y-21275213D02*
X47945660Y-21239555D01*
X47945660Y-21239555D02*
X48040188Y-21251162D01*
X48040188Y-21251162D02*
X48176177Y-21315836D01*
X48176177Y-21315836D02*
X48673707Y-21952645D01*
X48673707Y-21952645D02*
X48749150Y-21338211D01*
X47861063Y-20365588D02*
X47837850Y-20554645D01*
X47837850Y-20554645D02*
X47873507Y-20654976D01*
X47873507Y-20654976D02*
X47914968Y-20708043D01*
X47914968Y-20708043D02*
X48045154Y-20819982D01*
X48045154Y-20819982D02*
X48228407Y-20890459D01*
X48228407Y-20890459D02*
X48606520Y-20936885D01*
X48606520Y-20936885D02*
X48706851Y-20901228D01*
X48706851Y-20901228D02*
X48759919Y-20859767D01*
X48759919Y-20859767D02*
X48818789Y-20771042D01*
X48818789Y-20771042D02*
X48842003Y-20581986D01*
X48842003Y-20581986D02*
X48806345Y-20481654D01*
X48806345Y-20481654D02*
X48764884Y-20428587D01*
X48764884Y-20428587D02*
X48676159Y-20369716D01*
X48676159Y-20369716D02*
X48439839Y-20340700D01*
X48439839Y-20340700D02*
X48339507Y-20376357D01*
X48339507Y-20376357D02*
X48286440Y-20417818D01*
X48286440Y-20417818D02*
X48227569Y-20506543D01*
X48227569Y-20506543D02*
X48204356Y-20695599D01*
X48204356Y-20695599D02*
X48240014Y-20795931D01*
X48240014Y-20795931D02*
X48281474Y-20848998D01*
X48281474Y-20848998D02*
X48370199Y-20907869D01*
X46023444Y-51915273D02*
X45030898Y-51793403D01*
X45030898Y-51793403D02*
X45059915Y-51557083D01*
X45059915Y-51557083D02*
X45124589Y-51421094D01*
X45124589Y-51421094D02*
X45230723Y-51338172D01*
X45230723Y-51338172D02*
X45331055Y-51302515D01*
X45331055Y-51302515D02*
X45525915Y-51278464D01*
X45525915Y-51278464D02*
X45667707Y-51295874D01*
X45667707Y-51295874D02*
X45850960Y-51366351D01*
X45850960Y-51366351D02*
X45939685Y-51425222D01*
X45939685Y-51425222D02*
X46022607Y-51531357D01*
X46022607Y-51531357D02*
X46052461Y-51678952D01*
X46052461Y-51678952D02*
X46023444Y-51915273D01*
X45241492Y-50859728D02*
X45200031Y-50806660D01*
X45200031Y-50806660D02*
X45164374Y-50706329D01*
X45164374Y-50706329D02*
X45193390Y-50470008D01*
X45193390Y-50470008D02*
X45252261Y-50381284D01*
X45252261Y-50381284D02*
X45305329Y-50339823D01*
X45305329Y-50339823D02*
X45405660Y-50304165D01*
X45405660Y-50304165D02*
X45500188Y-50315772D01*
X45500188Y-50315772D02*
X45636177Y-50380446D01*
X45636177Y-50380446D02*
X46133707Y-51017255D01*
X46133707Y-51017255D02*
X46209150Y-50402821D01*
X45326866Y-49382934D02*
X45268833Y-49855575D01*
X45268833Y-49855575D02*
X45735671Y-49960872D01*
X45735671Y-49960872D02*
X45694210Y-49907805D01*
X45694210Y-49907805D02*
X45658553Y-49807473D01*
X45658553Y-49807473D02*
X45687569Y-49571153D01*
X45687569Y-49571153D02*
X45746440Y-49482428D01*
X45746440Y-49482428D02*
X45799507Y-49440967D01*
X45799507Y-49440967D02*
X45899839Y-49405310D01*
X45899839Y-49405310D02*
X46136159Y-49434326D01*
X46136159Y-49434326D02*
X46224884Y-49493197D01*
X46224884Y-49493197D02*
X46266345Y-49546264D01*
X46266345Y-49546264D02*
X46302003Y-49646596D01*
X46302003Y-49646596D02*
X46272986Y-49882916D01*
X46272986Y-49882916D02*
X46214115Y-49971641D01*
X46214115Y-49971641D02*
X46161048Y-50013102D01*
X61269714Y-8963819D02*
X61269714Y-7963819D01*
X61269714Y-7963819D02*
X61507809Y-7963819D01*
X61507809Y-7963819D02*
X61650666Y-8011438D01*
X61650666Y-8011438D02*
X61745904Y-8106676D01*
X61745904Y-8106676D02*
X61793523Y-8201914D01*
X61793523Y-8201914D02*
X61841142Y-8392390D01*
X61841142Y-8392390D02*
X61841142Y-8535247D01*
X61841142Y-8535247D02*
X61793523Y-8725723D01*
X61793523Y-8725723D02*
X61745904Y-8820961D01*
X61745904Y-8820961D02*
X61650666Y-8916200D01*
X61650666Y-8916200D02*
X61507809Y-8963819D01*
X61507809Y-8963819D02*
X61269714Y-8963819D01*
X62222095Y-8059057D02*
X62269714Y-8011438D01*
X62269714Y-8011438D02*
X62364952Y-7963819D01*
X62364952Y-7963819D02*
X62603047Y-7963819D01*
X62603047Y-7963819D02*
X62698285Y-8011438D01*
X62698285Y-8011438D02*
X62745904Y-8059057D01*
X62745904Y-8059057D02*
X62793523Y-8154295D01*
X62793523Y-8154295D02*
X62793523Y-8249533D01*
X62793523Y-8249533D02*
X62745904Y-8392390D01*
X62745904Y-8392390D02*
X62174476Y-8963819D01*
X62174476Y-8963819D02*
X62793523Y-8963819D01*
X63745904Y-8963819D02*
X63174476Y-8963819D01*
X63460190Y-8963819D02*
X63460190Y-7963819D01*
X63460190Y-7963819D02*
X63364952Y-8106676D01*
X63364952Y-8106676D02*
X63269714Y-8201914D01*
X63269714Y-8201914D02*
X63174476Y-8249533D01*
X57841714Y-39443819D02*
X57841714Y-38443819D01*
X57841714Y-38443819D02*
X58079809Y-38443819D01*
X58079809Y-38443819D02*
X58222666Y-38491438D01*
X58222666Y-38491438D02*
X58317904Y-38586676D01*
X58317904Y-38586676D02*
X58365523Y-38681914D01*
X58365523Y-38681914D02*
X58413142Y-38872390D01*
X58413142Y-38872390D02*
X58413142Y-39015247D01*
X58413142Y-39015247D02*
X58365523Y-39205723D01*
X58365523Y-39205723D02*
X58317904Y-39300961D01*
X58317904Y-39300961D02*
X58222666Y-39396200D01*
X58222666Y-39396200D02*
X58079809Y-39443819D01*
X58079809Y-39443819D02*
X57841714Y-39443819D01*
X58794095Y-38539057D02*
X58841714Y-38491438D01*
X58841714Y-38491438D02*
X58936952Y-38443819D01*
X58936952Y-38443819D02*
X59175047Y-38443819D01*
X59175047Y-38443819D02*
X59270285Y-38491438D01*
X59270285Y-38491438D02*
X59317904Y-38539057D01*
X59317904Y-38539057D02*
X59365523Y-38634295D01*
X59365523Y-38634295D02*
X59365523Y-38729533D01*
X59365523Y-38729533D02*
X59317904Y-38872390D01*
X59317904Y-38872390D02*
X58746476Y-39443819D01*
X58746476Y-39443819D02*
X59365523Y-39443819D01*
X59698857Y-38443819D02*
X60365523Y-38443819D01*
X60365523Y-38443819D02*
X59936952Y-39443819D01*
X54157714Y-63065819D02*
X54157714Y-62065819D01*
X54157714Y-62065819D02*
X54395809Y-62065819D01*
X54395809Y-62065819D02*
X54538666Y-62113438D01*
X54538666Y-62113438D02*
X54633904Y-62208676D01*
X54633904Y-62208676D02*
X54681523Y-62303914D01*
X54681523Y-62303914D02*
X54729142Y-62494390D01*
X54729142Y-62494390D02*
X54729142Y-62637247D01*
X54729142Y-62637247D02*
X54681523Y-62827723D01*
X54681523Y-62827723D02*
X54633904Y-62922961D01*
X54633904Y-62922961D02*
X54538666Y-63018200D01*
X54538666Y-63018200D02*
X54395809Y-63065819D01*
X54395809Y-63065819D02*
X54157714Y-63065819D01*
X55110095Y-62161057D02*
X55157714Y-62113438D01*
X55157714Y-62113438D02*
X55252952Y-62065819D01*
X55252952Y-62065819D02*
X55491047Y-62065819D01*
X55491047Y-62065819D02*
X55586285Y-62113438D01*
X55586285Y-62113438D02*
X55633904Y-62161057D01*
X55633904Y-62161057D02*
X55681523Y-62256295D01*
X55681523Y-62256295D02*
X55681523Y-62351533D01*
X55681523Y-62351533D02*
X55633904Y-62494390D01*
X55633904Y-62494390D02*
X55062476Y-63065819D01*
X55062476Y-63065819D02*
X55681523Y-63065819D01*
X56538666Y-62399152D02*
X56538666Y-63065819D01*
X56300571Y-62018200D02*
X56062476Y-62732485D01*
X56062476Y-62732485D02*
X56681523Y-62732485D01*
X71423444Y-21580663D02*
X70430898Y-21458793D01*
X70430898Y-21458793D02*
X70459915Y-21222473D01*
X70459915Y-21222473D02*
X70524589Y-21086484D01*
X70524589Y-21086484D02*
X70630723Y-21003562D01*
X70630723Y-21003562D02*
X70731055Y-20967905D01*
X70731055Y-20967905D02*
X70925915Y-20943854D01*
X70925915Y-20943854D02*
X71067707Y-20961264D01*
X71067707Y-20961264D02*
X71250960Y-21031741D01*
X71250960Y-21031741D02*
X71339685Y-21090612D01*
X71339685Y-21090612D02*
X71422607Y-21196747D01*
X71422607Y-21196747D02*
X71452461Y-21344342D01*
X71452461Y-21344342D02*
X71423444Y-21580663D01*
X70641492Y-20525118D02*
X70600031Y-20472050D01*
X70600031Y-20472050D02*
X70564374Y-20371719D01*
X70564374Y-20371719D02*
X70593390Y-20135398D01*
X70593390Y-20135398D02*
X70652261Y-20046674D01*
X70652261Y-20046674D02*
X70705329Y-20005213D01*
X70705329Y-20005213D02*
X70805660Y-19969555D01*
X70805660Y-19969555D02*
X70900188Y-19981162D01*
X70900188Y-19981162D02*
X71036177Y-20045836D01*
X71036177Y-20045836D02*
X71533707Y-20682645D01*
X71533707Y-20682645D02*
X71609150Y-20068211D01*
X70757558Y-19579836D02*
X70716098Y-19526768D01*
X70716098Y-19526768D02*
X70680440Y-19426437D01*
X70680440Y-19426437D02*
X70709457Y-19190116D01*
X70709457Y-19190116D02*
X70768327Y-19101391D01*
X70768327Y-19101391D02*
X70821395Y-19059931D01*
X70821395Y-19059931D02*
X70921726Y-19024273D01*
X70921726Y-19024273D02*
X71016254Y-19035880D01*
X71016254Y-19035880D02*
X71152243Y-19100554D01*
X71152243Y-19100554D02*
X71649773Y-19737363D01*
X71649773Y-19737363D02*
X71725216Y-19122929D01*
X69036003Y-51769773D02*
X68043457Y-51647903D01*
X68043457Y-51647903D02*
X68072474Y-51411583D01*
X68072474Y-51411583D02*
X68137148Y-51275594D01*
X68137148Y-51275594D02*
X68243282Y-51192672D01*
X68243282Y-51192672D02*
X68343614Y-51157015D01*
X68343614Y-51157015D02*
X68538474Y-51132964D01*
X68538474Y-51132964D02*
X68680266Y-51150374D01*
X68680266Y-51150374D02*
X68863519Y-51220851D01*
X68863519Y-51220851D02*
X68952244Y-51279722D01*
X68952244Y-51279722D02*
X69035166Y-51385857D01*
X69035166Y-51385857D02*
X69065020Y-51533452D01*
X69065020Y-51533452D02*
X69036003Y-51769773D01*
X68254051Y-50714228D02*
X68212590Y-50661160D01*
X68212590Y-50661160D02*
X68176933Y-50560829D01*
X68176933Y-50560829D02*
X68205949Y-50324508D01*
X68205949Y-50324508D02*
X68264820Y-50235784D01*
X68264820Y-50235784D02*
X68317888Y-50194323D01*
X68317888Y-50194323D02*
X68418219Y-50158665D01*
X68418219Y-50158665D02*
X68512747Y-50170272D01*
X68512747Y-50170272D02*
X68648736Y-50234946D01*
X68648736Y-50234946D02*
X69146266Y-50871755D01*
X69146266Y-50871755D02*
X69221709Y-50257321D01*
X68269786Y-49804603D02*
X68345229Y-49190170D01*
X68345229Y-49190170D02*
X68682718Y-49567445D01*
X68682718Y-49567445D02*
X68700128Y-49425653D01*
X68700128Y-49425653D02*
X68758999Y-49336928D01*
X68758999Y-49336928D02*
X68812066Y-49295467D01*
X68812066Y-49295467D02*
X68912398Y-49259810D01*
X68912398Y-49259810D02*
X69148718Y-49288826D01*
X69148718Y-49288826D02*
X69237443Y-49347697D01*
X69237443Y-49347697D02*
X69278904Y-49400764D01*
X69278904Y-49400764D02*
X69314562Y-49501096D01*
X69314562Y-49501096D02*
X69279742Y-49784680D01*
X69279742Y-49784680D02*
X69220871Y-49873405D01*
X69220871Y-49873405D02*
X69167804Y-49914866D01*
X21645714Y-9090819D02*
X21645714Y-8090819D01*
X21645714Y-8090819D02*
X21883809Y-8090819D01*
X21883809Y-8090819D02*
X22026666Y-8138438D01*
X22026666Y-8138438D02*
X22121904Y-8233676D01*
X22121904Y-8233676D02*
X22169523Y-8328914D01*
X22169523Y-8328914D02*
X22217142Y-8519390D01*
X22217142Y-8519390D02*
X22217142Y-8662247D01*
X22217142Y-8662247D02*
X22169523Y-8852723D01*
X22169523Y-8852723D02*
X22121904Y-8947961D01*
X22121904Y-8947961D02*
X22026666Y-9043200D01*
X22026666Y-9043200D02*
X21883809Y-9090819D01*
X21883809Y-9090819D02*
X21645714Y-9090819D01*
X23169523Y-9090819D02*
X22598095Y-9090819D01*
X22883809Y-9090819D02*
X22883809Y-8090819D01*
X22883809Y-8090819D02*
X22788571Y-8233676D01*
X22788571Y-8233676D02*
X22693333Y-8328914D01*
X22693333Y-8328914D02*
X22598095Y-8376533D01*
X24121904Y-9090819D02*
X23550476Y-9090819D01*
X23836190Y-9090819D02*
X23836190Y-8090819D01*
X23836190Y-8090819D02*
X23740952Y-8233676D01*
X23740952Y-8233676D02*
X23645714Y-8328914D01*
X23645714Y-8328914D02*
X23550476Y-8376533D01*
X9193444Y-21797773D02*
X8200898Y-21675903D01*
X8200898Y-21675903D02*
X8229915Y-21439583D01*
X8229915Y-21439583D02*
X8294589Y-21303594D01*
X8294589Y-21303594D02*
X8400723Y-21220672D01*
X8400723Y-21220672D02*
X8501055Y-21185015D01*
X8501055Y-21185015D02*
X8695915Y-21160964D01*
X8695915Y-21160964D02*
X8837707Y-21178374D01*
X8837707Y-21178374D02*
X9020960Y-21248851D01*
X9020960Y-21248851D02*
X9109685Y-21307722D01*
X9109685Y-21307722D02*
X9192607Y-21413857D01*
X9192607Y-21413857D02*
X9222461Y-21561452D01*
X9222461Y-21561452D02*
X9193444Y-21797773D01*
X9379150Y-20285321D02*
X9309510Y-20852491D01*
X9344330Y-20568906D02*
X8351784Y-20447037D01*
X8351784Y-20447037D02*
X8481970Y-20558975D01*
X8481970Y-20558975D02*
X8564891Y-20665110D01*
X8564891Y-20665110D02*
X8600549Y-20765441D01*
X8491063Y-19312698D02*
X8467850Y-19501755D01*
X8467850Y-19501755D02*
X8503507Y-19602086D01*
X8503507Y-19602086D02*
X8544968Y-19655153D01*
X8544968Y-19655153D02*
X8675154Y-19767092D01*
X8675154Y-19767092D02*
X8858407Y-19837569D01*
X8858407Y-19837569D02*
X9236520Y-19883995D01*
X9236520Y-19883995D02*
X9336851Y-19848338D01*
X9336851Y-19848338D02*
X9389919Y-19806877D01*
X9389919Y-19806877D02*
X9448789Y-19718152D01*
X9448789Y-19718152D02*
X9472003Y-19529096D01*
X9472003Y-19529096D02*
X9436345Y-19428764D01*
X9436345Y-19428764D02*
X9394884Y-19375697D01*
X9394884Y-19375697D02*
X9306159Y-19316826D01*
X9306159Y-19316826D02*
X9069839Y-19287810D01*
X9069839Y-19287810D02*
X8969507Y-19323467D01*
X8969507Y-19323467D02*
X8916440Y-19364928D01*
X8916440Y-19364928D02*
X8857569Y-19453653D01*
X8857569Y-19453653D02*
X8834356Y-19642709D01*
X8834356Y-19642709D02*
X8870014Y-19743041D01*
X8870014Y-19743041D02*
X8911474Y-19796108D01*
X8911474Y-19796108D02*
X9000199Y-19854979D01*
X29412003Y-51642773D02*
X28419457Y-51520903D01*
X28419457Y-51520903D02*
X28448474Y-51284583D01*
X28448474Y-51284583D02*
X28513148Y-51148594D01*
X28513148Y-51148594D02*
X28619282Y-51065672D01*
X28619282Y-51065672D02*
X28719614Y-51030015D01*
X28719614Y-51030015D02*
X28914474Y-51005964D01*
X28914474Y-51005964D02*
X29056266Y-51023374D01*
X29056266Y-51023374D02*
X29239519Y-51093851D01*
X29239519Y-51093851D02*
X29328244Y-51152722D01*
X29328244Y-51152722D02*
X29411166Y-51258857D01*
X29411166Y-51258857D02*
X29441020Y-51406452D01*
X29441020Y-51406452D02*
X29412003Y-51642773D01*
X29597709Y-50130321D02*
X29528069Y-50697491D01*
X29562889Y-50413906D02*
X28570343Y-50292037D01*
X28570343Y-50292037D02*
X28700529Y-50403975D01*
X28700529Y-50403975D02*
X28783450Y-50510110D01*
X28783450Y-50510110D02*
X28819108Y-50610441D01*
X28645786Y-49677603D02*
X28721229Y-49063170D01*
X28721229Y-49063170D02*
X29058718Y-49440445D01*
X29058718Y-49440445D02*
X29076128Y-49298653D01*
X29076128Y-49298653D02*
X29134999Y-49209928D01*
X29134999Y-49209928D02*
X29188066Y-49168467D01*
X29188066Y-49168467D02*
X29288398Y-49132810D01*
X29288398Y-49132810D02*
X29524718Y-49161826D01*
X29524718Y-49161826D02*
X29613443Y-49220697D01*
X29613443Y-49220697D02*
X29654904Y-49273764D01*
X29654904Y-49273764D02*
X29690562Y-49374096D01*
X29690562Y-49374096D02*
X29655742Y-49657680D01*
X29655742Y-49657680D02*
X29596871Y-49746405D01*
X29596871Y-49746405D02*
X29543804Y-49787866D01*
X14533714Y-62684819D02*
X14533714Y-61684819D01*
X14533714Y-61684819D02*
X14771809Y-61684819D01*
X14771809Y-61684819D02*
X14914666Y-61732438D01*
X14914666Y-61732438D02*
X15009904Y-61827676D01*
X15009904Y-61827676D02*
X15057523Y-61922914D01*
X15057523Y-61922914D02*
X15105142Y-62113390D01*
X15105142Y-62113390D02*
X15105142Y-62256247D01*
X15105142Y-62256247D02*
X15057523Y-62446723D01*
X15057523Y-62446723D02*
X15009904Y-62541961D01*
X15009904Y-62541961D02*
X14914666Y-62637200D01*
X14914666Y-62637200D02*
X14771809Y-62684819D01*
X14771809Y-62684819D02*
X14533714Y-62684819D01*
X16057523Y-62684819D02*
X15486095Y-62684819D01*
X15771809Y-62684819D02*
X15771809Y-61684819D01*
X15771809Y-61684819D02*
X15676571Y-61827676D01*
X15676571Y-61827676D02*
X15581333Y-61922914D01*
X15581333Y-61922914D02*
X15486095Y-61970533D01*
X16914666Y-62018152D02*
X16914666Y-62684819D01*
X16676571Y-61637200D02*
X16438476Y-62351485D01*
X16438476Y-62351485D02*
X17057523Y-62351485D01*
X32968003Y-21797773D02*
X31975457Y-21675903D01*
X31975457Y-21675903D02*
X32004474Y-21439583D01*
X32004474Y-21439583D02*
X32069148Y-21303594D01*
X32069148Y-21303594D02*
X32175282Y-21220672D01*
X32175282Y-21220672D02*
X32275614Y-21185015D01*
X32275614Y-21185015D02*
X32470474Y-21160964D01*
X32470474Y-21160964D02*
X32612266Y-21178374D01*
X32612266Y-21178374D02*
X32795519Y-21248851D01*
X32795519Y-21248851D02*
X32884244Y-21307722D01*
X32884244Y-21307722D02*
X32967166Y-21413857D01*
X32967166Y-21413857D02*
X32997020Y-21561452D01*
X32997020Y-21561452D02*
X32968003Y-21797773D01*
X33153709Y-20285321D02*
X33084069Y-20852491D01*
X33118889Y-20568906D02*
X32126343Y-20447037D01*
X32126343Y-20447037D02*
X32256529Y-20558975D01*
X32256529Y-20558975D02*
X32339450Y-20665110D01*
X32339450Y-20665110D02*
X32375108Y-20765441D01*
X32302117Y-19796946D02*
X32260657Y-19743878D01*
X32260657Y-19743878D02*
X32224999Y-19643547D01*
X32224999Y-19643547D02*
X32254016Y-19407226D01*
X32254016Y-19407226D02*
X32312886Y-19318501D01*
X32312886Y-19318501D02*
X32365954Y-19277041D01*
X32365954Y-19277041D02*
X32466285Y-19241383D01*
X32466285Y-19241383D02*
X32560813Y-19252990D01*
X32560813Y-19252990D02*
X32696802Y-19317664D01*
X32696802Y-19317664D02*
X33194332Y-19954473D01*
X33194332Y-19954473D02*
X33269775Y-19340039D01*
X5383444Y-52060663D02*
X4390898Y-51938793D01*
X4390898Y-51938793D02*
X4419915Y-51702473D01*
X4419915Y-51702473D02*
X4484589Y-51566484D01*
X4484589Y-51566484D02*
X4590723Y-51483562D01*
X4590723Y-51483562D02*
X4691055Y-51447905D01*
X4691055Y-51447905D02*
X4885915Y-51423854D01*
X4885915Y-51423854D02*
X5027707Y-51441264D01*
X5027707Y-51441264D02*
X5210960Y-51511741D01*
X5210960Y-51511741D02*
X5299685Y-51570612D01*
X5299685Y-51570612D02*
X5382607Y-51676747D01*
X5382607Y-51676747D02*
X5412461Y-51824342D01*
X5412461Y-51824342D02*
X5383444Y-52060663D01*
X5569150Y-50548211D02*
X5499510Y-51115381D01*
X5534330Y-50831796D02*
X4541784Y-50709927D01*
X4541784Y-50709927D02*
X4671970Y-50821865D01*
X4671970Y-50821865D02*
X4754891Y-50928000D01*
X4754891Y-50928000D02*
X4790549Y-51028331D01*
X4686866Y-49528324D02*
X4628833Y-50000965D01*
X4628833Y-50000965D02*
X5095671Y-50106262D01*
X5095671Y-50106262D02*
X5054210Y-50053195D01*
X5054210Y-50053195D02*
X5018553Y-49952863D01*
X5018553Y-49952863D02*
X5047569Y-49716543D01*
X5047569Y-49716543D02*
X5106440Y-49627818D01*
X5106440Y-49627818D02*
X5159507Y-49586357D01*
X5159507Y-49586357D02*
X5259839Y-49550700D01*
X5259839Y-49550700D02*
X5496159Y-49579716D01*
X5496159Y-49579716D02*
X5584884Y-49638587D01*
X5584884Y-49638587D02*
X5626345Y-49691654D01*
X5626345Y-49691654D02*
X5662003Y-49791986D01*
X5662003Y-49791986D02*
X5632986Y-50028306D01*
X5632986Y-50028306D02*
X5574115Y-50117031D01*
X5574115Y-50117031D02*
X5521048Y-50158492D01*
X18089714Y-39443819D02*
X18089714Y-38443819D01*
X18089714Y-38443819D02*
X18327809Y-38443819D01*
X18327809Y-38443819D02*
X18470666Y-38491438D01*
X18470666Y-38491438D02*
X18565904Y-38586676D01*
X18565904Y-38586676D02*
X18613523Y-38681914D01*
X18613523Y-38681914D02*
X18661142Y-38872390D01*
X18661142Y-38872390D02*
X18661142Y-39015247D01*
X18661142Y-39015247D02*
X18613523Y-39205723D01*
X18613523Y-39205723D02*
X18565904Y-39300961D01*
X18565904Y-39300961D02*
X18470666Y-39396200D01*
X18470666Y-39396200D02*
X18327809Y-39443819D01*
X18327809Y-39443819D02*
X18089714Y-39443819D01*
X19613523Y-39443819D02*
X19042095Y-39443819D01*
X19327809Y-39443819D02*
X19327809Y-38443819D01*
X19327809Y-38443819D02*
X19232571Y-38586676D01*
X19232571Y-38586676D02*
X19137333Y-38681914D01*
X19137333Y-38681914D02*
X19042095Y-38729533D01*
X19946857Y-38443819D02*
X20613523Y-38443819D01*
X20613523Y-38443819D02*
X20184952Y-39443819D01*
X60671666Y-14694819D02*
X60671666Y-15409104D01*
X60671666Y-15409104D02*
X60624047Y-15551961D01*
X60624047Y-15551961D02*
X60528809Y-15647200D01*
X60528809Y-15647200D02*
X60385952Y-15694819D01*
X60385952Y-15694819D02*
X60290714Y-15694819D01*
X61147857Y-15694819D02*
X61147857Y-14694819D01*
X61147857Y-14694819D02*
X61528809Y-14694819D01*
X61528809Y-14694819D02*
X61624047Y-14742438D01*
X61624047Y-14742438D02*
X61671666Y-14790057D01*
X61671666Y-14790057D02*
X61719285Y-14885295D01*
X61719285Y-14885295D02*
X61719285Y-15028152D01*
X61719285Y-15028152D02*
X61671666Y-15123390D01*
X61671666Y-15123390D02*
X61624047Y-15171009D01*
X61624047Y-15171009D02*
X61528809Y-15218628D01*
X61528809Y-15218628D02*
X61147857Y-15218628D01*
X62671666Y-15694819D02*
X62100238Y-15694819D01*
X62385952Y-15694819D02*
X62385952Y-14694819D01*
X62385952Y-14694819D02*
X62290714Y-14837676D01*
X62290714Y-14837676D02*
X62195476Y-14932914D01*
X62195476Y-14932914D02*
X62100238Y-14980533D01*
X15766666Y-41364819D02*
X15766666Y-42079104D01*
X15766666Y-42079104D02*
X15719047Y-42221961D01*
X15719047Y-42221961D02*
X15623809Y-42317200D01*
X15623809Y-42317200D02*
X15480952Y-42364819D01*
X15480952Y-42364819D02*
X15385714Y-42364819D01*
X16242857Y-42364819D02*
X16242857Y-41364819D01*
X16242857Y-41364819D02*
X16623809Y-41364819D01*
X16623809Y-41364819D02*
X16719047Y-41412438D01*
X16719047Y-41412438D02*
X16766666Y-41460057D01*
X16766666Y-41460057D02*
X16814285Y-41555295D01*
X16814285Y-41555295D02*
X16814285Y-41698152D01*
X16814285Y-41698152D02*
X16766666Y-41793390D01*
X16766666Y-41793390D02*
X16719047Y-41841009D01*
X16719047Y-41841009D02*
X16623809Y-41888628D01*
X16623809Y-41888628D02*
X16242857Y-41888628D01*
X17147619Y-41364819D02*
X17814285Y-41364819D01*
X17814285Y-41364819D02*
X17385714Y-42364819D01*
X15676666Y-48984819D02*
X15676666Y-49699104D01*
X15676666Y-49699104D02*
X15629047Y-49841961D01*
X15629047Y-49841961D02*
X15533809Y-49937200D01*
X15533809Y-49937200D02*
X15390952Y-49984819D01*
X15390952Y-49984819D02*
X15295714Y-49984819D01*
X16152857Y-49984819D02*
X16152857Y-48984819D01*
X16152857Y-48984819D02*
X16533809Y-48984819D01*
X16533809Y-48984819D02*
X16629047Y-49032438D01*
X16629047Y-49032438D02*
X16676666Y-49080057D01*
X16676666Y-49080057D02*
X16724285Y-49175295D01*
X16724285Y-49175295D02*
X16724285Y-49318152D01*
X16724285Y-49318152D02*
X16676666Y-49413390D01*
X16676666Y-49413390D02*
X16629047Y-49461009D01*
X16629047Y-49461009D02*
X16533809Y-49508628D01*
X16533809Y-49508628D02*
X16152857Y-49508628D01*
X17629047Y-48984819D02*
X17152857Y-48984819D01*
X17152857Y-48984819D02*
X17105238Y-49461009D01*
X17105238Y-49461009D02*
X17152857Y-49413390D01*
X17152857Y-49413390D02*
X17248095Y-49365771D01*
X17248095Y-49365771D02*
X17486190Y-49365771D01*
X17486190Y-49365771D02*
X17581428Y-49413390D01*
X17581428Y-49413390D02*
X17629047Y-49461009D01*
X17629047Y-49461009D02*
X17676666Y-49556247D01*
X17676666Y-49556247D02*
X17676666Y-49794342D01*
X17676666Y-49794342D02*
X17629047Y-49889580D01*
X17629047Y-49889580D02*
X17581428Y-49937200D01*
X17581428Y-49937200D02*
X17486190Y-49984819D01*
X17486190Y-49984819D02*
X17248095Y-49984819D01*
X17248095Y-49984819D02*
X17152857Y-49937200D01*
X17152857Y-49937200D02*
X17105238Y-49889580D01*
X56316666Y-48984819D02*
X56316666Y-49699104D01*
X56316666Y-49699104D02*
X56269047Y-49841961D01*
X56269047Y-49841961D02*
X56173809Y-49937200D01*
X56173809Y-49937200D02*
X56030952Y-49984819D01*
X56030952Y-49984819D02*
X55935714Y-49984819D01*
X56792857Y-49984819D02*
X56792857Y-48984819D01*
X56792857Y-48984819D02*
X57173809Y-48984819D01*
X57173809Y-48984819D02*
X57269047Y-49032438D01*
X57269047Y-49032438D02*
X57316666Y-49080057D01*
X57316666Y-49080057D02*
X57364285Y-49175295D01*
X57364285Y-49175295D02*
X57364285Y-49318152D01*
X57364285Y-49318152D02*
X57316666Y-49413390D01*
X57316666Y-49413390D02*
X57269047Y-49461009D01*
X57269047Y-49461009D02*
X57173809Y-49508628D01*
X57173809Y-49508628D02*
X56792857Y-49508628D01*
X58221428Y-49318152D02*
X58221428Y-49984819D01*
X57983333Y-48937200D02*
X57745238Y-49651485D01*
X57745238Y-49651485D02*
X58364285Y-49651485D01*
X18216666Y-22314819D02*
X18216666Y-23029104D01*
X18216666Y-23029104D02*
X18169047Y-23171961D01*
X18169047Y-23171961D02*
X18073809Y-23267200D01*
X18073809Y-23267200D02*
X17930952Y-23314819D01*
X17930952Y-23314819D02*
X17835714Y-23314819D01*
X18692857Y-23314819D02*
X18692857Y-22314819D01*
X18692857Y-22314819D02*
X19073809Y-22314819D01*
X19073809Y-22314819D02*
X19169047Y-22362438D01*
X19169047Y-22362438D02*
X19216666Y-22410057D01*
X19216666Y-22410057D02*
X19264285Y-22505295D01*
X19264285Y-22505295D02*
X19264285Y-22648152D01*
X19264285Y-22648152D02*
X19216666Y-22743390D01*
X19216666Y-22743390D02*
X19169047Y-22791009D01*
X19169047Y-22791009D02*
X19073809Y-22838628D01*
X19073809Y-22838628D02*
X18692857Y-22838628D01*
X20121428Y-22314819D02*
X19930952Y-22314819D01*
X19930952Y-22314819D02*
X19835714Y-22362438D01*
X19835714Y-22362438D02*
X19788095Y-22410057D01*
X19788095Y-22410057D02*
X19692857Y-22552914D01*
X19692857Y-22552914D02*
X19645238Y-22743390D01*
X19645238Y-22743390D02*
X19645238Y-23124342D01*
X19645238Y-23124342D02*
X19692857Y-23219580D01*
X19692857Y-23219580D02*
X19740476Y-23267200D01*
X19740476Y-23267200D02*
X19835714Y-23314819D01*
X19835714Y-23314819D02*
X20026190Y-23314819D01*
X20026190Y-23314819D02*
X20121428Y-23267200D01*
X20121428Y-23267200D02*
X20169047Y-23219580D01*
X20169047Y-23219580D02*
X20216666Y-23124342D01*
X20216666Y-23124342D02*
X20216666Y-22886247D01*
X20216666Y-22886247D02*
X20169047Y-22791009D01*
X20169047Y-22791009D02*
X20121428Y-22743390D01*
X20121428Y-22743390D02*
X20026190Y-22695771D01*
X20026190Y-22695771D02*
X19835714Y-22695771D01*
X19835714Y-22695771D02*
X19740476Y-22743390D01*
X19740476Y-22743390D02*
X19692857Y-22791009D01*
X19692857Y-22791009D02*
X19645238Y-22886247D01*
X60216666Y-22314819D02*
X60216666Y-23029104D01*
X60216666Y-23029104D02*
X60169047Y-23171961D01*
X60169047Y-23171961D02*
X60073809Y-23267200D01*
X60073809Y-23267200D02*
X59930952Y-23314819D01*
X59930952Y-23314819D02*
X59835714Y-23314819D01*
X60692857Y-23314819D02*
X60692857Y-22314819D01*
X60692857Y-22314819D02*
X61073809Y-22314819D01*
X61073809Y-22314819D02*
X61169047Y-22362438D01*
X61169047Y-22362438D02*
X61216666Y-22410057D01*
X61216666Y-22410057D02*
X61264285Y-22505295D01*
X61264285Y-22505295D02*
X61264285Y-22648152D01*
X61264285Y-22648152D02*
X61216666Y-22743390D01*
X61216666Y-22743390D02*
X61169047Y-22791009D01*
X61169047Y-22791009D02*
X61073809Y-22838628D01*
X61073809Y-22838628D02*
X60692857Y-22838628D01*
X61645238Y-22410057D02*
X61692857Y-22362438D01*
X61692857Y-22362438D02*
X61788095Y-22314819D01*
X61788095Y-22314819D02*
X62026190Y-22314819D01*
X62026190Y-22314819D02*
X62121428Y-22362438D01*
X62121428Y-22362438D02*
X62169047Y-22410057D01*
X62169047Y-22410057D02*
X62216666Y-22505295D01*
X62216666Y-22505295D02*
X62216666Y-22600533D01*
X62216666Y-22600533D02*
X62169047Y-22743390D01*
X62169047Y-22743390D02*
X61597619Y-23314819D01*
X61597619Y-23314819D02*
X62216666Y-23314819D01*
X83274819Y-61793333D02*
X83989104Y-61793333D01*
X83989104Y-61793333D02*
X84131961Y-61840952D01*
X84131961Y-61840952D02*
X84227200Y-61936190D01*
X84227200Y-61936190D02*
X84274819Y-62079047D01*
X84274819Y-62079047D02*
X84274819Y-62174285D01*
X84274819Y-61317142D02*
X83274819Y-61317142D01*
X83274819Y-61317142D02*
X83274819Y-60936190D01*
X83274819Y-60936190D02*
X83322438Y-60840952D01*
X83322438Y-60840952D02*
X83370057Y-60793333D01*
X83370057Y-60793333D02*
X83465295Y-60745714D01*
X83465295Y-60745714D02*
X83608152Y-60745714D01*
X83608152Y-60745714D02*
X83703390Y-60793333D01*
X83703390Y-60793333D02*
X83751009Y-60840952D01*
X83751009Y-60840952D02*
X83798628Y-60936190D01*
X83798628Y-60936190D02*
X83798628Y-61317142D01*
X83703390Y-60174285D02*
X83655771Y-60269523D01*
X83655771Y-60269523D02*
X83608152Y-60317142D01*
X83608152Y-60317142D02*
X83512914Y-60364761D01*
X83512914Y-60364761D02*
X83465295Y-60364761D01*
X83465295Y-60364761D02*
X83370057Y-60317142D01*
X83370057Y-60317142D02*
X83322438Y-60269523D01*
X83322438Y-60269523D02*
X83274819Y-60174285D01*
X83274819Y-60174285D02*
X83274819Y-59983809D01*
X83274819Y-59983809D02*
X83322438Y-59888571D01*
X83322438Y-59888571D02*
X83370057Y-59840952D01*
X83370057Y-59840952D02*
X83465295Y-59793333D01*
X83465295Y-59793333D02*
X83512914Y-59793333D01*
X83512914Y-59793333D02*
X83608152Y-59840952D01*
X83608152Y-59840952D02*
X83655771Y-59888571D01*
X83655771Y-59888571D02*
X83703390Y-59983809D01*
X83703390Y-59983809D02*
X83703390Y-60174285D01*
X83703390Y-60174285D02*
X83751009Y-60269523D01*
X83751009Y-60269523D02*
X83798628Y-60317142D01*
X83798628Y-60317142D02*
X83893866Y-60364761D01*
X83893866Y-60364761D02*
X84084342Y-60364761D01*
X84084342Y-60364761D02*
X84179580Y-60317142D01*
X84179580Y-60317142D02*
X84227200Y-60269523D01*
X84227200Y-60269523D02*
X84274819Y-60174285D01*
X84274819Y-60174285D02*
X84274819Y-59983809D01*
X84274819Y-59983809D02*
X84227200Y-59888571D01*
X84227200Y-59888571D02*
X84179580Y-59840952D01*
X84179580Y-59840952D02*
X84084342Y-59793333D01*
X84084342Y-59793333D02*
X83893866Y-59793333D01*
X83893866Y-59793333D02*
X83798628Y-59840952D01*
X83798628Y-59840952D02*
X83751009Y-59888571D01*
X83751009Y-59888571D02*
X83703390Y-59983809D01*
X56316666Y-41364819D02*
X56316666Y-42079104D01*
X56316666Y-42079104D02*
X56269047Y-42221961D01*
X56269047Y-42221961D02*
X56173809Y-42317200D01*
X56173809Y-42317200D02*
X56030952Y-42364819D01*
X56030952Y-42364819D02*
X55935714Y-42364819D01*
X56792857Y-42364819D02*
X56792857Y-41364819D01*
X56792857Y-41364819D02*
X57173809Y-41364819D01*
X57173809Y-41364819D02*
X57269047Y-41412438D01*
X57269047Y-41412438D02*
X57316666Y-41460057D01*
X57316666Y-41460057D02*
X57364285Y-41555295D01*
X57364285Y-41555295D02*
X57364285Y-41698152D01*
X57364285Y-41698152D02*
X57316666Y-41793390D01*
X57316666Y-41793390D02*
X57269047Y-41841009D01*
X57269047Y-41841009D02*
X57173809Y-41888628D01*
X57173809Y-41888628D02*
X56792857Y-41888628D01*
X57697619Y-41364819D02*
X58316666Y-41364819D01*
X58316666Y-41364819D02*
X57983333Y-41745771D01*
X57983333Y-41745771D02*
X58126190Y-41745771D01*
X58126190Y-41745771D02*
X58221428Y-41793390D01*
X58221428Y-41793390D02*
X58269047Y-41841009D01*
X58269047Y-41841009D02*
X58316666Y-41936247D01*
X58316666Y-41936247D02*
X58316666Y-42174342D01*
X58316666Y-42174342D02*
X58269047Y-42269580D01*
X58269047Y-42269580D02*
X58221428Y-42317200D01*
X58221428Y-42317200D02*
X58126190Y-42364819D01*
X58126190Y-42364819D02*
X57840476Y-42364819D01*
X57840476Y-42364819D02*
X57745238Y-42317200D01*
X57745238Y-42317200D02*
X57697619Y-42269580D01*
D11*
X83827018Y-25360832D02*
X83981855Y-25379844D01*
X86125755Y-25643082D02*
X86280592Y-25662093D01*
X83207922Y-30402967D02*
X83362759Y-30421978D01*
X85506659Y-30685216D02*
X85661496Y-30704228D01*
X81644704Y-43134356D02*
X81799541Y-43153368D01*
X83943441Y-43416606D02*
X84098278Y-43435617D01*
X83308867Y-48584793D02*
X83463704Y-48603805D01*
X81010130Y-48302544D02*
X81164967Y-48321556D01*
X81010611Y-48302603D02*
G75*
G02*
X81560272Y-45113485I1416422J1397800D01*
G01*
X83701408Y-45376382D02*
G75*
G02*
X83463224Y-48603747I-1274375J-1528421D01*
G01*
X81228222Y-47806385D02*
G75*
G02*
X81482127Y-45739835I1198811J901582D01*
G01*
X83625703Y-46003032D02*
G75*
G02*
X83372122Y-48069623I-1198670J-901771D01*
G01*
X84260277Y-40834844D02*
G75*
G02*
X84006696Y-42901435I-1198670J-901771D01*
G01*
X81862796Y-42638198D02*
G75*
G02*
X82116701Y-40571646I1198811J901583D01*
G01*
X84335982Y-40208194D02*
G75*
G02*
X84097798Y-43435559I-1274375J-1528421D01*
G01*
X81645184Y-43134415D02*
G75*
G02*
X82194845Y-39945296I1416423J1397800D01*
G01*
X85823495Y-28103455D02*
G75*
G02*
X85569914Y-30170045I-1198670J-901770D01*
G01*
X83426014Y-29906808D02*
G75*
G02*
X83679919Y-27840257I1198811J901583D01*
G01*
X85899200Y-27476805D02*
G75*
G02*
X85661016Y-30704168I-1274375J-1528420D01*
G01*
X83208402Y-30403026D02*
G75*
G02*
X83758063Y-27213906I1416423J1397801D01*
G01*
X86442591Y-23061320D02*
G75*
G02*
X86189010Y-25127911I-1198670J-901771D01*
G01*
X84045110Y-24864674D02*
G75*
G02*
X84299015Y-22798122I1198811J901583D01*
G01*
X86518296Y-22434670D02*
G75*
G02*
X86280112Y-25662035I-1274375J-1528421D01*
G01*
X83827499Y-25360891D02*
G75*
G02*
X84377160Y-22171773I1416422J1397800D01*
G01*
X45188063Y-11261939D02*
X45342901Y-11280951D01*
X47486800Y-11544188D02*
X47641637Y-11563200D01*
X44259419Y-18825141D02*
X44414256Y-18844152D01*
X46558156Y-19107390D02*
X46712993Y-19126402D01*
X43346252Y-26262289D02*
X43501089Y-26281301D01*
X45644989Y-26544538D02*
X45799826Y-26563550D01*
X44700867Y-34233793D02*
X44855704Y-34252805D01*
X42402130Y-33951544D02*
X42556967Y-33970556D01*
X42402611Y-33951603D02*
G75*
G02*
X42952272Y-30762485I1416422J1397800D01*
G01*
X45093408Y-31025382D02*
G75*
G02*
X44855224Y-34252747I-1274375J-1528421D01*
G01*
X42620222Y-33455385D02*
G75*
G02*
X42874127Y-31388835I1198811J901582D01*
G01*
X45017703Y-31652032D02*
G75*
G02*
X44764122Y-33718623I-1198670J-901771D01*
G01*
X45961825Y-23962777D02*
G75*
G02*
X45708244Y-26029367I-1198670J-901770D01*
G01*
X43564344Y-25766130D02*
G75*
G02*
X43818249Y-23699579I1198811J901583D01*
G01*
X46037530Y-23336127D02*
G75*
G02*
X45799346Y-26563490I-1274375J-1528420D01*
G01*
X43346732Y-26262348D02*
G75*
G02*
X43896392Y-23073228I1416423J1397801D01*
G01*
X46874992Y-16525629D02*
G75*
G02*
X46621411Y-18592219I-1198670J-901770D01*
G01*
X44477511Y-18328982D02*
G75*
G02*
X44731416Y-16262431I1198811J901583D01*
G01*
X46950697Y-15898979D02*
G75*
G02*
X46712513Y-19126342I-1274375J-1528420D01*
G01*
X44259899Y-18825200D02*
G75*
G02*
X44809560Y-15636080I1416423J1397801D01*
G01*
X47803636Y-8962427D02*
G75*
G02*
X47550054Y-11029017I-1198669J-901770D01*
G01*
X45406156Y-10765780D02*
G75*
G02*
X45660060Y-8699229I1198811J901583D01*
G01*
X47879341Y-8335777D02*
G75*
G02*
X47641157Y-11563140I-1274374J-1528420D01*
G01*
X45188544Y-11261998D02*
G75*
G02*
X45738204Y-8072878I1416423J1397801D01*
G01*
X41886063Y-41125439D02*
X42040901Y-41144451D01*
X44184800Y-41407688D02*
X44339637Y-41426700D01*
X40957419Y-48688641D02*
X41112256Y-48707652D01*
X43256156Y-48970890D02*
X43410993Y-48989902D01*
X40044252Y-56125789D02*
X40199089Y-56144801D01*
X42342989Y-56408038D02*
X42497826Y-56427050D01*
X41398867Y-64097293D02*
X41553704Y-64116305D01*
X39100130Y-63815044D02*
X39254967Y-63834056D01*
X39100611Y-63815103D02*
G75*
G02*
X39650272Y-60625985I1416422J1397800D01*
G01*
X41791408Y-60888882D02*
G75*
G02*
X41553224Y-64116247I-1274375J-1528421D01*
G01*
X39318222Y-63318885D02*
G75*
G02*
X39572127Y-61252335I1198811J901582D01*
G01*
X41715703Y-61515532D02*
G75*
G02*
X41462122Y-63582123I-1198670J-901771D01*
G01*
X42659825Y-53826277D02*
G75*
G02*
X42406244Y-55892867I-1198670J-901770D01*
G01*
X40262344Y-55629630D02*
G75*
G02*
X40516249Y-53563079I1198811J901583D01*
G01*
X42735530Y-53199627D02*
G75*
G02*
X42497346Y-56426990I-1274375J-1528420D01*
G01*
X40044732Y-56125848D02*
G75*
G02*
X40594392Y-52936728I1416423J1397801D01*
G01*
X43572992Y-46389129D02*
G75*
G02*
X43319411Y-48455719I-1198670J-901770D01*
G01*
X41175511Y-48192482D02*
G75*
G02*
X41429416Y-46125931I1198811J901583D01*
G01*
X43648697Y-45762479D02*
G75*
G02*
X43410513Y-48989842I-1274375J-1528420D01*
G01*
X40957899Y-48688700D02*
G75*
G02*
X41507560Y-45499580I1416423J1397801D01*
G01*
X44501636Y-38825927D02*
G75*
G02*
X44248054Y-40892517I-1198669J-901770D01*
G01*
X42104156Y-40629280D02*
G75*
G02*
X42358060Y-38562729I1198811J901583D01*
G01*
X44577341Y-38199277D02*
G75*
G02*
X44339157Y-41426640I-1274374J-1528420D01*
G01*
X41886544Y-41125498D02*
G75*
G02*
X42436204Y-37936378I1416423J1397801D01*
G01*
X52614000Y-6316000D02*
X52614000Y-6160000D01*
X52614000Y-4000000D02*
X52614000Y-3844000D01*
X60234000Y-6316000D02*
X60234000Y-6160000D01*
X60234000Y-4000000D02*
X60234000Y-3844000D01*
X67727000Y-6316000D02*
X67727000Y-6160000D01*
X67727000Y-4000000D02*
X67727000Y-3844000D01*
X75474000Y-4000000D02*
X75474000Y-3844000D01*
X75474000Y-6316000D02*
X75474000Y-6160000D01*
X75474000Y-6315516D02*
G75*
G02*
X72241665Y-6158608I-1560000J1235516D01*
G01*
X72241665Y-4001392D02*
G75*
G02*
X75474000Y-3844484I1672335J-1078608D01*
G01*
X74954961Y-6160000D02*
G75*
G02*
X72872870Y-6159837I-1040961J1080000D01*
G01*
X72872870Y-4000163D02*
G75*
G02*
X74954961Y-4000000I1041130J-1079837D01*
G01*
X65125870Y-4000163D02*
G75*
G02*
X67207961Y-4000000I1041130J-1079837D01*
G01*
X67207961Y-6160000D02*
G75*
G02*
X65125870Y-6159837I-1040961J1080000D01*
G01*
X64494665Y-4001392D02*
G75*
G02*
X67727000Y-3844484I1672335J-1078608D01*
G01*
X67727000Y-6315516D02*
G75*
G02*
X64494665Y-6158608I-1560000J1235516D01*
G01*
X57632870Y-4000163D02*
G75*
G02*
X59714961Y-4000000I1041130J-1079837D01*
G01*
X59714961Y-6160000D02*
G75*
G02*
X57632870Y-6159837I-1040961J1080000D01*
G01*
X57001665Y-4001392D02*
G75*
G02*
X60234000Y-3844484I1672335J-1078608D01*
G01*
X60234000Y-6315516D02*
G75*
G02*
X57001665Y-6158608I-1560000J1235516D01*
G01*
X50012870Y-4000163D02*
G75*
G02*
X52094961Y-4000000I1041130J-1079837D01*
G01*
X52094961Y-6160000D02*
G75*
G02*
X50012870Y-6159837I-1040961J1080000D01*
G01*
X49381665Y-4001392D02*
G75*
G02*
X52614000Y-3844484I1672335J-1078608D01*
G01*
X52614000Y-6315516D02*
G75*
G02*
X49381665Y-6158608I-1560000J1235516D01*
G01*
X49186000Y-36796000D02*
X49186000Y-36640000D01*
X49186000Y-34480000D02*
X49186000Y-34324000D01*
X56806000Y-36796000D02*
X56806000Y-36640000D01*
X56806000Y-34480000D02*
X56806000Y-34324000D01*
X64299000Y-36796000D02*
X64299000Y-36640000D01*
X64299000Y-34480000D02*
X64299000Y-34324000D01*
X72046000Y-34480000D02*
X72046000Y-34324000D01*
X72046000Y-36796000D02*
X72046000Y-36640000D01*
X72046000Y-36795516D02*
G75*
G02*
X68813665Y-36638608I-1560000J1235516D01*
G01*
X68813665Y-34481392D02*
G75*
G02*
X72046000Y-34324484I1672335J-1078608D01*
G01*
X71526961Y-36640000D02*
G75*
G02*
X69444870Y-36639837I-1040961J1080000D01*
G01*
X69444870Y-34480163D02*
G75*
G02*
X71526961Y-34480000I1041130J-1079837D01*
G01*
X61697870Y-34480163D02*
G75*
G02*
X63779961Y-34480000I1041130J-1079837D01*
G01*
X63779961Y-36640000D02*
G75*
G02*
X61697870Y-36639837I-1040961J1080000D01*
G01*
X61066665Y-34481392D02*
G75*
G02*
X64299000Y-34324484I1672335J-1078608D01*
G01*
X64299000Y-36795516D02*
G75*
G02*
X61066665Y-36638608I-1560000J1235516D01*
G01*
X54204870Y-34480163D02*
G75*
G02*
X56286961Y-34480000I1041130J-1079837D01*
G01*
X56286961Y-36640000D02*
G75*
G02*
X54204870Y-36639837I-1040961J1080000D01*
G01*
X53573665Y-34481392D02*
G75*
G02*
X56806000Y-34324484I1672335J-1078608D01*
G01*
X56806000Y-36795516D02*
G75*
G02*
X53573665Y-36638608I-1560000J1235516D01*
G01*
X46584870Y-34480163D02*
G75*
G02*
X48666961Y-34480000I1041130J-1079837D01*
G01*
X48666961Y-36640000D02*
G75*
G02*
X46584870Y-36639837I-1040961J1080000D01*
G01*
X45953665Y-34481392D02*
G75*
G02*
X49186000Y-34324484I1672335J-1078608D01*
G01*
X49186000Y-36795516D02*
G75*
G02*
X45953665Y-36638608I-1560000J1235516D01*
G01*
X45502000Y-67276000D02*
X45502000Y-67120000D01*
X45502000Y-64960000D02*
X45502000Y-64804000D01*
X53122000Y-67276000D02*
X53122000Y-67120000D01*
X53122000Y-64960000D02*
X53122000Y-64804000D01*
X60615000Y-67276000D02*
X60615000Y-67120000D01*
X60615000Y-64960000D02*
X60615000Y-64804000D01*
X68362000Y-64960000D02*
X68362000Y-64804000D01*
X68362000Y-67276000D02*
X68362000Y-67120000D01*
X68362000Y-67275516D02*
G75*
G02*
X65129665Y-67118608I-1560000J1235516D01*
G01*
X65129665Y-64961392D02*
G75*
G02*
X68362000Y-64804484I1672335J-1078608D01*
G01*
X67842961Y-67120000D02*
G75*
G02*
X65760870Y-67119837I-1040961J1080000D01*
G01*
X65760870Y-64960163D02*
G75*
G02*
X67842961Y-64960000I1041130J-1079837D01*
G01*
X58013870Y-64960163D02*
G75*
G02*
X60095961Y-64960000I1041130J-1079837D01*
G01*
X60095961Y-67120000D02*
G75*
G02*
X58013870Y-67119837I-1040961J1080000D01*
G01*
X57382665Y-64961392D02*
G75*
G02*
X60615000Y-64804484I1672335J-1078608D01*
G01*
X60615000Y-67275516D02*
G75*
G02*
X57382665Y-67118608I-1560000J1235516D01*
G01*
X50520870Y-64960163D02*
G75*
G02*
X52602961Y-64960000I1041130J-1079837D01*
G01*
X52602961Y-67120000D02*
G75*
G02*
X50520870Y-67119837I-1040961J1080000D01*
G01*
X49889665Y-64961392D02*
G75*
G02*
X53122000Y-64804484I1672335J-1078608D01*
G01*
X53122000Y-67275516D02*
G75*
G02*
X49889665Y-67118608I-1560000J1235516D01*
G01*
X42900870Y-64960163D02*
G75*
G02*
X44982961Y-64960000I1041130J-1079837D01*
G01*
X44982961Y-67120000D02*
G75*
G02*
X42900870Y-67119837I-1040961J1080000D01*
G01*
X42269665Y-64961392D02*
G75*
G02*
X45502000Y-64804484I1672335J-1078608D01*
G01*
X45502000Y-67275516D02*
G75*
G02*
X42269665Y-67118608I-1560000J1235516D01*
G01*
X75668063Y-10499939D02*
X75822901Y-10518951D01*
X77966800Y-10782188D02*
X78121637Y-10801200D01*
X74739419Y-18063141D02*
X74894256Y-18082152D01*
X77038156Y-18345390D02*
X77192993Y-18364402D01*
X73826252Y-25500289D02*
X73981089Y-25519301D01*
X76124989Y-25782538D02*
X76279826Y-25801550D01*
X75180867Y-33471793D02*
X75335704Y-33490805D01*
X72882130Y-33189544D02*
X73036967Y-33208556D01*
X72882611Y-33189603D02*
G75*
G02*
X73432272Y-30000485I1416422J1397800D01*
G01*
X75573408Y-30263382D02*
G75*
G02*
X75335224Y-33490747I-1274375J-1528421D01*
G01*
X73100222Y-32693385D02*
G75*
G02*
X73354127Y-30626835I1198811J901582D01*
G01*
X75497703Y-30890032D02*
G75*
G02*
X75244122Y-32956623I-1198670J-901771D01*
G01*
X76441825Y-23200777D02*
G75*
G02*
X76188244Y-25267367I-1198670J-901770D01*
G01*
X74044344Y-25004130D02*
G75*
G02*
X74298249Y-22937579I1198811J901583D01*
G01*
X76517530Y-22574127D02*
G75*
G02*
X76279346Y-25801490I-1274375J-1528420D01*
G01*
X73826732Y-25500348D02*
G75*
G02*
X74376392Y-22311228I1416423J1397801D01*
G01*
X77354992Y-15763629D02*
G75*
G02*
X77101411Y-17830219I-1198670J-901770D01*
G01*
X74957511Y-17566982D02*
G75*
G02*
X75211416Y-15500431I1198811J901583D01*
G01*
X77430697Y-15136979D02*
G75*
G02*
X77192513Y-18364342I-1274375J-1528420D01*
G01*
X74739899Y-18063200D02*
G75*
G02*
X75289560Y-14874080I1416423J1397801D01*
G01*
X78283636Y-8200427D02*
G75*
G02*
X78030054Y-10267017I-1198669J-901770D01*
G01*
X75886156Y-10003780D02*
G75*
G02*
X76140060Y-7937229I1198811J901583D01*
G01*
X78359341Y-7573777D02*
G75*
G02*
X78121157Y-10801140I-1274374J-1528420D01*
G01*
X75668544Y-10499998D02*
G75*
G02*
X76218204Y-7310878I1416423J1397801D01*
G01*
X72112063Y-40979939D02*
X72266901Y-40998951D01*
X74410800Y-41262188D02*
X74565637Y-41281200D01*
X71183419Y-48543141D02*
X71338256Y-48562152D01*
X73482156Y-48825390D02*
X73636993Y-48844402D01*
X70270252Y-55980289D02*
X70425089Y-55999301D01*
X72568989Y-56262538D02*
X72723826Y-56281550D01*
X71624867Y-63951793D02*
X71779704Y-63970805D01*
X69326130Y-63669544D02*
X69480967Y-63688556D01*
X69326611Y-63669603D02*
G75*
G02*
X69876272Y-60480485I1416422J1397800D01*
G01*
X72017408Y-60743382D02*
G75*
G02*
X71779224Y-63970747I-1274375J-1528421D01*
G01*
X69544222Y-63173385D02*
G75*
G02*
X69798127Y-61106835I1198811J901582D01*
G01*
X71941703Y-61370032D02*
G75*
G02*
X71688122Y-63436623I-1198670J-901771D01*
G01*
X72885825Y-53680777D02*
G75*
G02*
X72632244Y-55747367I-1198670J-901770D01*
G01*
X70488344Y-55484130D02*
G75*
G02*
X70742249Y-53417579I1198811J901583D01*
G01*
X72961530Y-53054127D02*
G75*
G02*
X72723346Y-56281490I-1274375J-1528420D01*
G01*
X70270732Y-55980348D02*
G75*
G02*
X70820392Y-52791228I1416423J1397801D01*
G01*
X73798992Y-46243629D02*
G75*
G02*
X73545411Y-48310219I-1198670J-901770D01*
G01*
X71401511Y-48046982D02*
G75*
G02*
X71655416Y-45980431I1198811J901583D01*
G01*
X73874697Y-45616979D02*
G75*
G02*
X73636513Y-48844342I-1274375J-1528420D01*
G01*
X71183899Y-48543200D02*
G75*
G02*
X71733560Y-45354080I1416423J1397801D01*
G01*
X74727636Y-38680427D02*
G75*
G02*
X74474054Y-40747017I-1198669J-901770D01*
G01*
X72330156Y-40483780D02*
G75*
G02*
X72584060Y-38417229I1198811J901583D01*
G01*
X74803341Y-38053777D02*
G75*
G02*
X74565157Y-41281140I-1274374J-1528420D01*
G01*
X72112544Y-40979998D02*
G75*
G02*
X72662204Y-37790878I1416423J1397801D01*
G01*
X12990000Y-6443000D02*
X12990000Y-6287000D01*
X12990000Y-4127000D02*
X12990000Y-3971000D01*
X20610000Y-6443000D02*
X20610000Y-6287000D01*
X20610000Y-4127000D02*
X20610000Y-3971000D01*
X28103000Y-6443000D02*
X28103000Y-6287000D01*
X28103000Y-4127000D02*
X28103000Y-3971000D01*
X35850000Y-4127000D02*
X35850000Y-3971000D01*
X35850000Y-6443000D02*
X35850000Y-6287000D01*
X35850000Y-6442516D02*
G75*
G02*
X32617665Y-6285608I-1560000J1235516D01*
G01*
X32617665Y-4128392D02*
G75*
G02*
X35850000Y-3971484I1672335J-1078608D01*
G01*
X35330961Y-6287000D02*
G75*
G02*
X33248870Y-6286837I-1040961J1080000D01*
G01*
X33248870Y-4127163D02*
G75*
G02*
X35330961Y-4127000I1041130J-1079837D01*
G01*
X25501870Y-4127163D02*
G75*
G02*
X27583961Y-4127000I1041130J-1079837D01*
G01*
X27583961Y-6287000D02*
G75*
G02*
X25501870Y-6286837I-1040961J1080000D01*
G01*
X24870665Y-4128392D02*
G75*
G02*
X28103000Y-3971484I1672335J-1078608D01*
G01*
X28103000Y-6442516D02*
G75*
G02*
X24870665Y-6285608I-1560000J1235516D01*
G01*
X18008870Y-4127163D02*
G75*
G02*
X20090961Y-4127000I1041130J-1079837D01*
G01*
X20090961Y-6287000D02*
G75*
G02*
X18008870Y-6286837I-1040961J1080000D01*
G01*
X17377665Y-4128392D02*
G75*
G02*
X20610000Y-3971484I1672335J-1078608D01*
G01*
X20610000Y-6442516D02*
G75*
G02*
X17377665Y-6285608I-1560000J1235516D01*
G01*
X10388870Y-4127163D02*
G75*
G02*
X12470961Y-4127000I1041130J-1079837D01*
G01*
X12470961Y-6287000D02*
G75*
G02*
X10388870Y-6286837I-1040961J1080000D01*
G01*
X9757665Y-4128392D02*
G75*
G02*
X12990000Y-3971484I1672335J-1078608D01*
G01*
X12990000Y-6442516D02*
G75*
G02*
X9757665Y-6285608I-1560000J1235516D01*
G01*
X5609763Y-11007939D02*
X5764601Y-11026951D01*
X7908500Y-11290188D02*
X8063337Y-11309200D01*
X4681119Y-18571141D02*
X4835956Y-18590152D01*
X6979856Y-18853390D02*
X7134693Y-18872402D01*
X3767952Y-26008289D02*
X3922789Y-26027301D01*
X6066689Y-26290538D02*
X6221526Y-26309550D01*
X5122567Y-33979793D02*
X5277404Y-33998805D01*
X2823830Y-33697544D02*
X2978667Y-33716556D01*
X2824311Y-33697603D02*
G75*
G02*
X3373972Y-30508485I1416422J1397800D01*
G01*
X5515108Y-30771382D02*
G75*
G02*
X5276924Y-33998747I-1274375J-1528421D01*
G01*
X3041922Y-33201385D02*
G75*
G02*
X3295827Y-31134835I1198811J901582D01*
G01*
X5439403Y-31398032D02*
G75*
G02*
X5185822Y-33464623I-1198670J-901771D01*
G01*
X6383525Y-23708777D02*
G75*
G02*
X6129944Y-25775367I-1198670J-901770D01*
G01*
X3986044Y-25512130D02*
G75*
G02*
X4239949Y-23445579I1198811J901583D01*
G01*
X6459230Y-23082127D02*
G75*
G02*
X6221046Y-26309490I-1274375J-1528420D01*
G01*
X3768432Y-26008348D02*
G75*
G02*
X4318092Y-22819228I1416423J1397801D01*
G01*
X7296692Y-16271629D02*
G75*
G02*
X7043111Y-18338219I-1198670J-901770D01*
G01*
X4899211Y-18074982D02*
G75*
G02*
X5153116Y-16008431I1198811J901583D01*
G01*
X7372397Y-15644979D02*
G75*
G02*
X7134213Y-18872342I-1274375J-1528420D01*
G01*
X4681599Y-18571200D02*
G75*
G02*
X5231260Y-15382080I1416423J1397801D01*
G01*
X8225336Y-8708427D02*
G75*
G02*
X7971754Y-10775017I-1198669J-901770D01*
G01*
X5827856Y-10511780D02*
G75*
G02*
X6081760Y-8445229I1198811J901583D01*
G01*
X8301041Y-8081777D02*
G75*
G02*
X8062857Y-11309140I-1274374J-1528420D01*
G01*
X5610244Y-11007998D02*
G75*
G02*
X6159904Y-7818878I1416423J1397801D01*
G01*
X32488063Y-40852939D02*
X32642901Y-40871951D01*
X34786800Y-41135188D02*
X34941637Y-41154200D01*
X31559419Y-48416141D02*
X31714256Y-48435152D01*
X33858156Y-48698390D02*
X34012993Y-48717402D01*
X30646252Y-55853289D02*
X30801089Y-55872301D01*
X32944989Y-56135538D02*
X33099826Y-56154550D01*
X32000867Y-63824793D02*
X32155704Y-63843805D01*
X29702130Y-63542544D02*
X29856967Y-63561556D01*
X29702611Y-63542603D02*
G75*
G02*
X30252272Y-60353485I1416422J1397800D01*
G01*
X32393408Y-60616382D02*
G75*
G02*
X32155224Y-63843747I-1274375J-1528421D01*
G01*
X29920222Y-63046385D02*
G75*
G02*
X30174127Y-60979835I1198811J901582D01*
G01*
X32317703Y-61243032D02*
G75*
G02*
X32064122Y-63309623I-1198670J-901771D01*
G01*
X33261825Y-53553777D02*
G75*
G02*
X33008244Y-55620367I-1198670J-901770D01*
G01*
X30864344Y-55357130D02*
G75*
G02*
X31118249Y-53290579I1198811J901583D01*
G01*
X33337530Y-52927127D02*
G75*
G02*
X33099346Y-56154490I-1274375J-1528420D01*
G01*
X30646732Y-55853348D02*
G75*
G02*
X31196392Y-52664228I1416423J1397801D01*
G01*
X34174992Y-46116629D02*
G75*
G02*
X33921411Y-48183219I-1198670J-901770D01*
G01*
X31777511Y-47919982D02*
G75*
G02*
X32031416Y-45853431I1198811J901583D01*
G01*
X34250697Y-45489979D02*
G75*
G02*
X34012513Y-48717342I-1274375J-1528420D01*
G01*
X31559899Y-48416200D02*
G75*
G02*
X32109560Y-45227080I1416423J1397801D01*
G01*
X35103636Y-38553427D02*
G75*
G02*
X34850054Y-40620017I-1198669J-901770D01*
G01*
X32706156Y-40356780D02*
G75*
G02*
X32960060Y-38290229I1198811J901583D01*
G01*
X35179341Y-37926777D02*
G75*
G02*
X34941157Y-41154140I-1274374J-1528420D01*
G01*
X32488544Y-40852998D02*
G75*
G02*
X33038204Y-37663878I1416423J1397801D01*
G01*
X5878000Y-67403000D02*
X5878000Y-67247000D01*
X5878000Y-65087000D02*
X5878000Y-64931000D01*
X13498000Y-67403000D02*
X13498000Y-67247000D01*
X13498000Y-65087000D02*
X13498000Y-64931000D01*
X20991000Y-67403000D02*
X20991000Y-67247000D01*
X20991000Y-65087000D02*
X20991000Y-64931000D01*
X28738000Y-65087000D02*
X28738000Y-64931000D01*
X28738000Y-67403000D02*
X28738000Y-67247000D01*
X28738000Y-67402516D02*
G75*
G02*
X25505665Y-67245608I-1560000J1235516D01*
G01*
X25505665Y-65088392D02*
G75*
G02*
X28738000Y-64931484I1672335J-1078608D01*
G01*
X28218961Y-67247000D02*
G75*
G02*
X26136870Y-67246837I-1040961J1080000D01*
G01*
X26136870Y-65087163D02*
G75*
G02*
X28218961Y-65087000I1041130J-1079837D01*
G01*
X18389870Y-65087163D02*
G75*
G02*
X20471961Y-65087000I1041130J-1079837D01*
G01*
X20471961Y-67247000D02*
G75*
G02*
X18389870Y-67246837I-1040961J1080000D01*
G01*
X17758665Y-65088392D02*
G75*
G02*
X20991000Y-64931484I1672335J-1078608D01*
G01*
X20991000Y-67402516D02*
G75*
G02*
X17758665Y-67245608I-1560000J1235516D01*
G01*
X10896870Y-65087163D02*
G75*
G02*
X12978961Y-65087000I1041130J-1079837D01*
G01*
X12978961Y-67247000D02*
G75*
G02*
X10896870Y-67246837I-1040961J1080000D01*
G01*
X10265665Y-65088392D02*
G75*
G02*
X13498000Y-64931484I1672335J-1078608D01*
G01*
X13498000Y-67402516D02*
G75*
G02*
X10265665Y-67245608I-1560000J1235516D01*
G01*
X3276870Y-65087163D02*
G75*
G02*
X5358961Y-65087000I1041130J-1079837D01*
G01*
X5358961Y-67247000D02*
G75*
G02*
X3276870Y-67246837I-1040961J1080000D01*
G01*
X2645665Y-65088392D02*
G75*
G02*
X5878000Y-64931484I1672335J-1078608D01*
G01*
X5878000Y-67402516D02*
G75*
G02*
X2645665Y-67245608I-1560000J1235516D01*
G01*
X36044063Y-11007939D02*
X36198901Y-11026951D01*
X38342800Y-11290188D02*
X38497637Y-11309200D01*
X35115419Y-18571141D02*
X35270256Y-18590152D01*
X37414156Y-18853390D02*
X37568993Y-18872402D01*
X34202252Y-26008289D02*
X34357089Y-26027301D01*
X36500989Y-26290538D02*
X36655826Y-26309550D01*
X35556867Y-33979793D02*
X35711704Y-33998805D01*
X33258130Y-33697544D02*
X33412967Y-33716556D01*
X33258611Y-33697603D02*
G75*
G02*
X33808272Y-30508485I1416422J1397800D01*
G01*
X35949408Y-30771382D02*
G75*
G02*
X35711224Y-33998747I-1274375J-1528421D01*
G01*
X33476222Y-33201385D02*
G75*
G02*
X33730127Y-31134835I1198811J901582D01*
G01*
X35873703Y-31398032D02*
G75*
G02*
X35620122Y-33464623I-1198670J-901771D01*
G01*
X36817825Y-23708777D02*
G75*
G02*
X36564244Y-25775367I-1198670J-901770D01*
G01*
X34420344Y-25512130D02*
G75*
G02*
X34674249Y-23445579I1198811J901583D01*
G01*
X36893530Y-23082127D02*
G75*
G02*
X36655346Y-26309490I-1274375J-1528420D01*
G01*
X34202732Y-26008348D02*
G75*
G02*
X34752392Y-22819228I1416423J1397801D01*
G01*
X37730992Y-16271629D02*
G75*
G02*
X37477411Y-18338219I-1198670J-901770D01*
G01*
X35333511Y-18074982D02*
G75*
G02*
X35587416Y-16008431I1198811J901583D01*
G01*
X37806697Y-15644979D02*
G75*
G02*
X37568513Y-18872342I-1274375J-1528420D01*
G01*
X35115899Y-18571200D02*
G75*
G02*
X35665560Y-15382080I1416423J1397801D01*
G01*
X38659636Y-8708427D02*
G75*
G02*
X38406054Y-10775017I-1198669J-901770D01*
G01*
X36262156Y-10511780D02*
G75*
G02*
X36516060Y-8445229I1198811J901583D01*
G01*
X38735341Y-8081777D02*
G75*
G02*
X38497157Y-11309140I-1274374J-1528420D01*
G01*
X36044544Y-11007998D02*
G75*
G02*
X36594204Y-7818878I1416423J1397801D01*
G01*
X2008063Y-40852939D02*
X2162901Y-40871951D01*
X4306800Y-41135188D02*
X4461637Y-41154200D01*
X1079419Y-48416141D02*
X1234256Y-48435152D01*
X3378156Y-48698390D02*
X3532993Y-48717402D01*
X166252Y-55853289D02*
X321089Y-55872301D01*
X2464989Y-56135538D02*
X2619826Y-56154550D01*
X1520867Y-63824793D02*
X1675704Y-63843805D01*
X-777870Y-63542544D02*
X-623033Y-63561556D01*
X-777389Y-63542603D02*
G75*
G02*
X-227728Y-60353485I1416422J1397800D01*
G01*
X1913408Y-60616382D02*
G75*
G02*
X1675224Y-63843747I-1274375J-1528421D01*
G01*
X-559778Y-63046385D02*
G75*
G02*
X-305873Y-60979835I1198811J901582D01*
G01*
X1837703Y-61243032D02*
G75*
G02*
X1584122Y-63309623I-1198670J-901771D01*
G01*
X2781825Y-53553777D02*
G75*
G02*
X2528244Y-55620367I-1198670J-901770D01*
G01*
X384344Y-55357130D02*
G75*
G02*
X638249Y-53290579I1198811J901583D01*
G01*
X2857530Y-52927127D02*
G75*
G02*
X2619346Y-56154490I-1274375J-1528420D01*
G01*
X166732Y-55853348D02*
G75*
G02*
X716392Y-52664228I1416423J1397801D01*
G01*
X3694992Y-46116629D02*
G75*
G02*
X3441411Y-48183219I-1198670J-901770D01*
G01*
X1297511Y-47919982D02*
G75*
G02*
X1551416Y-45853431I1198811J901583D01*
G01*
X3770697Y-45489979D02*
G75*
G02*
X3532513Y-48717342I-1274375J-1528420D01*
G01*
X1079899Y-48416200D02*
G75*
G02*
X1629560Y-45227080I1416423J1397801D01*
G01*
X4623636Y-38553427D02*
G75*
G02*
X4370054Y-40620017I-1198669J-901770D01*
G01*
X2226156Y-40356780D02*
G75*
G02*
X2480060Y-38290229I1198811J901583D01*
G01*
X4699341Y-37926777D02*
G75*
G02*
X4461157Y-41154140I-1274374J-1528420D01*
G01*
X2008544Y-40852998D02*
G75*
G02*
X2558204Y-37663878I1416423J1397801D01*
G01*
X9434000Y-36796000D02*
X9434000Y-36640000D01*
X9434000Y-34480000D02*
X9434000Y-34324000D01*
X17054000Y-36796000D02*
X17054000Y-36640000D01*
X17054000Y-34480000D02*
X17054000Y-34324000D01*
X24547000Y-36796000D02*
X24547000Y-36640000D01*
X24547000Y-34480000D02*
X24547000Y-34324000D01*
X32294000Y-34480000D02*
X32294000Y-34324000D01*
X32294000Y-36796000D02*
X32294000Y-36640000D01*
X32294000Y-36795516D02*
G75*
G02*
X29061665Y-36638608I-1560000J1235516D01*
G01*
X29061665Y-34481392D02*
G75*
G02*
X32294000Y-34324484I1672335J-1078608D01*
G01*
X31774961Y-36640000D02*
G75*
G02*
X29692870Y-36639837I-1040961J1080000D01*
G01*
X29692870Y-34480163D02*
G75*
G02*
X31774961Y-34480000I1041130J-1079837D01*
G01*
X21945870Y-34480163D02*
G75*
G02*
X24027961Y-34480000I1041130J-1079837D01*
G01*
X24027961Y-36640000D02*
G75*
G02*
X21945870Y-36639837I-1040961J1080000D01*
G01*
X21314665Y-34481392D02*
G75*
G02*
X24547000Y-34324484I1672335J-1078608D01*
G01*
X24547000Y-36795516D02*
G75*
G02*
X21314665Y-36638608I-1560000J1235516D01*
G01*
X14452870Y-34480163D02*
G75*
G02*
X16534961Y-34480000I1041130J-1079837D01*
G01*
X16534961Y-36640000D02*
G75*
G02*
X14452870Y-36639837I-1040961J1080000D01*
G01*
X13821665Y-34481392D02*
G75*
G02*
X17054000Y-34324484I1672335J-1078608D01*
G01*
X17054000Y-36795516D02*
G75*
G02*
X13821665Y-36638608I-1560000J1235516D01*
G01*
X6832870Y-34480163D02*
G75*
G02*
X8914961Y-34480000I1041130J-1079837D01*
G01*
X8914961Y-36640000D02*
G75*
G02*
X6832870Y-36639837I-1040961J1080000D01*
G01*
X6201665Y-34481392D02*
G75*
G02*
X9434000Y-34324484I1672335J-1078608D01*
G01*
X9434000Y-36795516D02*
G75*
G02*
X6201665Y-36638608I-1560000J1235516D01*
G01*
X60105000Y-16780000D02*
X62905000Y-16780000D01*
X60105000Y-18780000D02*
X60105000Y-16780000D01*
X62905000Y-16780000D02*
X62905000Y-18780000D01*
X62905000Y-18780000D02*
X60105000Y-18780000D01*
X15200000Y-43450000D02*
X18000000Y-43450000D01*
X15200000Y-45450000D02*
X15200000Y-43450000D01*
X18000000Y-43450000D02*
X18000000Y-45450000D01*
X18000000Y-45450000D02*
X15200000Y-45450000D01*
X15110000Y-50968300D02*
X17910000Y-50968300D01*
X15110000Y-52968300D02*
X15110000Y-50968300D01*
X17910000Y-50968300D02*
X17910000Y-52968300D01*
X17910000Y-52968300D02*
X15110000Y-52968300D01*
X55750000Y-51070000D02*
X58550000Y-51070000D01*
X55750000Y-53070000D02*
X55750000Y-51070000D01*
X58550000Y-51070000D02*
X58550000Y-53070000D01*
X58550000Y-53070000D02*
X55750000Y-53070000D01*
X17740000Y-24372000D02*
X20540000Y-24372000D01*
X17740000Y-26372000D02*
X17740000Y-24372000D01*
X20540000Y-24372000D02*
X20540000Y-26372000D01*
X20540000Y-26372000D02*
X17740000Y-26372000D01*
X59650000Y-24443000D02*
X62450000Y-24443000D01*
X59650000Y-26443000D02*
X59650000Y-24443000D01*
X62450000Y-24443000D02*
X62450000Y-26443000D01*
X62450000Y-26443000D02*
X59650000Y-26443000D01*
X80280000Y-59560000D02*
X82280000Y-59560000D01*
X80280000Y-62360000D02*
X80280000Y-59560000D01*
X82280000Y-59560000D02*
X82280000Y-62360000D01*
X82280000Y-62360000D02*
X80280000Y-62360000D01*
X55750000Y-43450000D02*
X58550000Y-43450000D01*
X55750000Y-45450000D02*
X55750000Y-43450000D01*
X58550000Y-43450000D02*
X58550000Y-45450000D01*
X58550000Y-45450000D02*
X55750000Y-45450000D01*
M02*
